STARTFONT 2.1
COMMENT  
COMMENT  Copyright 1989 Dale Schumacher.
COMMENT  
COMMENT  WARNING:  This bdf file was generated from a font server using
COMMENT  fstobdf.  The resulting font is subject to the same copyright,
COMMENT  license, and trademark restrictions as the original font.  The
COMMENT  authors and distributors of fstobdf disclaim all liability for
COMMENT  misuse of the program or its output.
COMMENT  
FONT -Schumacher-Clean-Medium-R-Normal--12-120-75-75-C-60-ISO646.1991-IRV
SIZE 12 75 75
FONTBOUNDINGBOX 6 12 0 -3
STARTPROPERTIES 24
FONTNAME_REGISTRY ""
FOUNDRY "Schumacher"
FAMILY_NAME "Clean"
WEIGHT_NAME "Medium"
SLANT "R"
SETWIDTH_NAME "Normal"
ADD_STYLE_NAME ""
PIXEL_SIZE 12
POINT_SIZE 120
RESOLUTION_X 75
RESOLUTION_Y 75
SPACING "C"
AVERAGE_WIDTH 60
CHARSET_REGISTRY "ISO646.1991"
CHARSET_ENCODING "IRV"
COPYRIGHT "Copyright 1989 Dale Schumacher."
FONT "-Schumacher-Clean-Medium-R-Normal--12-120-75-75-C-60-ISO646.1991-IRV"
WEIGHT 10
RESOLUTION 103
X_HEIGHT 9
QUAD_WIDTH 6
DEFAULT_CHAR 0
FONT_ASCENT 9
FONT_DESCENT 3
ENDPROPERTIES
CHARS 128
STARTCHAR C000
ENCODING 0
SWIDTH 480 0
DWIDTH 6 0
BBX 6 11 0 -3
BITMAP
7c
7c
44
7c
44
44
44
fc
44
44
7c
ENDCHAR
STARTCHAR C001
ENCODING 1
SWIDTH 480 0
DWIDTH 6 0
BBX 6 7 0 0
BITMAP
fc
d8
88
d8
d8
f8
84
ENDCHAR
STARTCHAR C002
ENCODING 2
SWIDTH 480 0
DWIDTH 6 0
BBX 6 7 0 0
BITMAP
fc
d8
d8
88
d8
f8
84
ENDCHAR
STARTCHAR C003
ENCODING 3
SWIDTH 480 0
DWIDTH 6 0
BBX 6 7 0 0
BITMAP
fc
f8
e8
80
e8
f8
84
ENDCHAR
STARTCHAR C004
ENCODING 4
SWIDTH 480 0
DWIDTH 6 0
BBX 6 7 0 0
BITMAP
fc
f8
d8
80
d8
f8
84
ENDCHAR
STARTCHAR C005
ENCODING 5
SWIDTH 480 0
DWIDTH 6 0
BBX 5 5 1 1
BITMAP
f8
f0
f0
f0
88
ENDCHAR
STARTCHAR C006
ENCODING 6
SWIDTH 480 0
DWIDTH 6 0
BBX 5 7 1 0
BITMAP
38
30
30
30
f0
f0
88
ENDCHAR
STARTCHAR C007
ENCODING 7
SWIDTH 480 0
DWIDTH 6 0
BBX 5 7 1 0
BITMAP
f8
f0
f0
f0
f0
f0
88
ENDCHAR
STARTCHAR C010
ENCODING 8
SWIDTH 480 0
DWIDTH 6 0
BBX 6 8 0 -1
BITMAP
c0
a0
c0
ac
d0
08
04
18
ENDCHAR
STARTCHAR C011
ENCODING 9
SWIDTH 480 0
DWIDTH 6 0
BBX 6 8 0 -1
BITMAP
a0
a0
e0
bc
a8
08
08
08
ENDCHAR
STARTCHAR C012
ENCODING 10
SWIDTH 480 0
DWIDTH 6 0
BBX 6 8 0 -1
BITMAP
80
80
80
9c
f0
18
10
10
ENDCHAR
STARTCHAR C013
ENCODING 11
SWIDTH 480 0
DWIDTH 6 0
BBX 6 8 0 -1
BITMAP
a0
a0
a0
5c
48
08
08
08
ENDCHAR
STARTCHAR C014
ENCODING 12
SWIDTH 480 0
DWIDTH 6 0
BBX 6 8 0 -1
BITMAP
e0
80
c0
9c
90
18
10
10
ENDCHAR
STARTCHAR C015
ENCODING 13
SWIDTH 480 0
DWIDTH 6 0
BBX 6 8 0 -1
BITMAP
60
80
80
98
74
18
14
14
ENDCHAR
STARTCHAR C016
ENCODING 14
SWIDTH 480 0
DWIDTH 6 0
BBX 5 8 1 -1
BITMAP
e0
70
38
18
10
20
40
80
ENDCHAR
STARTCHAR C017
ENCODING 15
SWIDTH 480 0
DWIDTH 6 0
BBX 5 8 0 -1
BITMAP
08
10
20
40
c0
e0
70
38
ENDCHAR
STARTCHAR C020
ENCODING 16
SWIDTH 480 0
DWIDTH 6 0
BBX 4 7 1 0
BITMAP
60
90
90
00
90
90
60
ENDCHAR
STARTCHAR C021
ENCODING 17
SWIDTH 480 0
DWIDTH 6 0
BBX 1 5 4 1
BITMAP
80
80
00
80
80
ENDCHAR
STARTCHAR C022
ENCODING 18
SWIDTH 480 0
DWIDTH 6 0
BBX 4 7 1 0
BITMAP
60
10
10
60
80
80
60
ENDCHAR
STARTCHAR C023
ENCODING 19
SWIDTH 480 0
DWIDTH 6 0
BBX 3 7 2 0
BITMAP
c0
20
20
c0
20
20
c0
ENDCHAR
STARTCHAR C024
ENCODING 20
SWIDTH 480 0
DWIDTH 6 0
BBX 4 5 1 1
BITMAP
90
90
60
10
10
ENDCHAR
STARTCHAR C025
ENCODING 21
SWIDTH 480 0
DWIDTH 6 0
BBX 4 7 1 0
BITMAP
60
80
80
60
10
10
60
ENDCHAR
STARTCHAR C026
ENCODING 22
SWIDTH 480 0
DWIDTH 6 0
BBX 4 7 1 0
BITMAP
60
80
80
60
90
90
60
ENDCHAR
STARTCHAR C027
ENCODING 23
SWIDTH 480 0
DWIDTH 6 0
BBX 3 6 2 1
BITMAP
c0
20
20
00
20
20
ENDCHAR
STARTCHAR C030
ENCODING 24
SWIDTH 480 0
DWIDTH 6 0
BBX 4 7 1 0
BITMAP
60
90
90
60
90
90
60
ENDCHAR
STARTCHAR C031
ENCODING 25
SWIDTH 480 0
DWIDTH 6 0
BBX 4 7 1 0
BITMAP
60
90
90
60
10
10
60
ENDCHAR
STARTCHAR C032
ENCODING 26
SWIDTH 480 0
DWIDTH 6 0
BBX 5 5 1 0
BITMAP
70
08
f8
88
70
ENDCHAR
STARTCHAR C033
ENCODING 27
SWIDTH 480 0
DWIDTH 6 0
BBX 6 8 0 -1
BITMAP
e0
80
e0
8c
f0
10
10
0c
ENDCHAR
STARTCHAR C034
ENCODING 28
SWIDTH 480 0
DWIDTH 6 0
BBX 5 6 1 0
BITMAP
20
70
f8
20
20
20
ENDCHAR
STARTCHAR C035
ENCODING 29
SWIDTH 480 0
DWIDTH 6 0
BBX 5 6 1 0
BITMAP
20
20
20
f8
70
20
ENDCHAR
STARTCHAR C036
ENCODING 30
SWIDTH 480 0
DWIDTH 6 0
BBX 6 5 0 1
BITMAP
10
18
fc
18
10
ENDCHAR
STARTCHAR C037
ENCODING 31
SWIDTH 480 0
DWIDTH 6 0
BBX 6 5 0 1
BITMAP
20
60
fc
60
20
ENDCHAR
STARTCHAR space
ENCODING 32
SWIDTH 480 0
DWIDTH 6 0
BBX 0 0 0 0
BITMAP
ENDCHAR
STARTCHAR exclam
ENCODING 33
SWIDTH 480 0
DWIDTH 6 0
BBX 1 8 3 0
BITMAP
80
80
80
80
80
80
00
80
ENDCHAR
STARTCHAR quotedbl
ENCODING 34
SWIDTH 480 0
DWIDTH 6 0
BBX 3 3 2 5
BITMAP
a0
a0
a0
ENDCHAR
STARTCHAR numbersign
ENCODING 35
SWIDTH 480 0
DWIDTH 6 0
BBX 5 7 1 0
BITMAP
50
50
f8
50
f8
50
50
ENDCHAR
STARTCHAR dollar
ENCODING 36
SWIDTH 480 0
DWIDTH 6 0
BBX 5 7 1 0
BITMAP
20
78
a0
70
28
f0
20
ENDCHAR
STARTCHAR percent
ENCODING 37
SWIDTH 480 0
DWIDTH 6 0
BBX 5 7 1 0
BITMAP
c0
c8
10
20
40
98
18
ENDCHAR
STARTCHAR ampersand
ENCODING 38
SWIDTH 480 0
DWIDTH 6 0
BBX 5 7 1 0
BITMAP
70
80
80
40
a8
90
68
ENDCHAR
STARTCHAR apostrophe
ENCODING 39
SWIDTH 480 0
DWIDTH 6 0
BBX 3 3 2 5
BITMAP
60
40
80
ENDCHAR
STARTCHAR parenleft
ENCODING 40
SWIDTH 480 0
DWIDTH 6 0
BBX 3 11 3 -2
BITMAP
20
40
40
80
80
80
80
80
40
40
20
ENDCHAR
STARTCHAR parenright
ENCODING 41
SWIDTH 480 0
DWIDTH 6 0
BBX 3 11 1 -2
BITMAP
80
40
40
20
20
20
20
20
40
40
80
ENDCHAR
STARTCHAR asterisk
ENCODING 42
SWIDTH 480 0
DWIDTH 6 0
BBX 5 5 1 1
BITMAP
20
a8
70
a8
20
ENDCHAR
STARTCHAR plus
ENCODING 43
SWIDTH 480 0
DWIDTH 6 0
BBX 5 5 1 1
BITMAP
20
20
f8
20
20
ENDCHAR
STARTCHAR comma
ENCODING 44
SWIDTH 480 0
DWIDTH 6 0
BBX 3 4 2 -2
BITMAP
60
60
40
80
ENDCHAR
STARTCHAR minus
ENCODING 45
SWIDTH 480 0
DWIDTH 6 0
BBX 5 1 1 3
BITMAP
f8
ENDCHAR
STARTCHAR period
ENCODING 46
SWIDTH 480 0
DWIDTH 6 0
BBX 2 2 3 0
BITMAP
c0
c0
ENDCHAR
STARTCHAR slash
ENCODING 47
SWIDTH 480 0
DWIDTH 6 0
BBX 5 10 1 -1
BITMAP
08
08
10
10
20
20
40
40
80
80
ENDCHAR
STARTCHAR 0
ENCODING 48
SWIDTH 480 0
DWIDTH 6 0
BBX 5 8 1 0
BITMAP
70
88
98
a8
c8
88
88
70
ENDCHAR
STARTCHAR 1
ENCODING 49
SWIDTH 480 0
DWIDTH 6 0
BBX 2 8 2 0
BITMAP
40
c0
40
40
40
40
40
40
ENDCHAR
STARTCHAR 2
ENCODING 50
SWIDTH 480 0
DWIDTH 6 0
BBX 5 8 1 0
BITMAP
70
88
08
10
20
40
80
f8
ENDCHAR
STARTCHAR 3
ENCODING 51
SWIDTH 480 0
DWIDTH 6 0
BBX 5 8 1 0
BITMAP
70
88
08
30
08
08
88
70
ENDCHAR
STARTCHAR 4
ENCODING 52
SWIDTH 480 0
DWIDTH 6 0
BBX 5 8 1 0
BITMAP
10
30
30
50
50
f8
10
38
ENDCHAR
STARTCHAR 5
ENCODING 53
SWIDTH 480 0
DWIDTH 6 0
BBX 5 8 1 0
BITMAP
f8
80
80
f0
08
08
88
70
ENDCHAR
STARTCHAR 6
ENCODING 54
SWIDTH 480 0
DWIDTH 6 0
BBX 5 8 1 0
BITMAP
30
40
80
f0
88
88
88
70
ENDCHAR
STARTCHAR 7
ENCODING 55
SWIDTH 480 0
DWIDTH 6 0
BBX 5 8 1 0
BITMAP
f8
88
08
08
10
10
20
20
ENDCHAR
STARTCHAR 8
ENCODING 56
SWIDTH 480 0
DWIDTH 6 0
BBX 5 8 1 0
BITMAP
70
88
88
70
88
88
88
70
ENDCHAR
STARTCHAR 9
ENCODING 57
SWIDTH 480 0
DWIDTH 6 0
BBX 5 8 1 0
BITMAP
70
88
88
88
78
08
10
60
ENDCHAR
STARTCHAR colon
ENCODING 58
SWIDTH 480 0
DWIDTH 6 0
BBX 2 6 3 0
BITMAP
c0
c0
00
00
c0
c0
ENDCHAR
STARTCHAR semicolon
ENCODING 59
SWIDTH 480 0
DWIDTH 6 0
BBX 3 8 2 -2
BITMAP
60
60
00
00
60
60
40
80
ENDCHAR
STARTCHAR less
ENCODING 60
SWIDTH 480 0
DWIDTH 6 0
BBX 6 5 0 1
BITMAP
0c
30
c0
30
0c
ENDCHAR
STARTCHAR equal
ENCODING 61
SWIDTH 480 0
DWIDTH 6 0
BBX 5 3 1 2
BITMAP
f8
00
f8
ENDCHAR
STARTCHAR greater
ENCODING 62
SWIDTH 480 0
DWIDTH 6 0
BBX 6 5 0 1
BITMAP
c0
30
0c
30
c0
ENDCHAR
STARTCHAR question
ENCODING 63
SWIDTH 480 0
DWIDTH 6 0
BBX 5 8 1 0
BITMAP
70
88
08
10
20
20
00
20
ENDCHAR
STARTCHAR at
ENCODING 64
SWIDTH 480 0
DWIDTH 6 0
BBX 5 7 1 0
BITMAP
70
88
b8
b8
b0
80
70
ENDCHAR
STARTCHAR A
ENCODING 65
SWIDTH 480 0
DWIDTH 6 0
BBX 5 7 1 0
BITMAP
20
50
88
88
f8
88
88
ENDCHAR
STARTCHAR B
ENCODING 66
SWIDTH 480 0
DWIDTH 6 0
BBX 5 7 1 0
BITMAP
f0
88
88
f0
88
88
f0
ENDCHAR
STARTCHAR C
ENCODING 67
SWIDTH 480 0
DWIDTH 6 0
BBX 5 7 1 0
BITMAP
70
88
80
80
80
88
70
ENDCHAR
STARTCHAR D
ENCODING 68
SWIDTH 480 0
DWIDTH 6 0
BBX 5 7 1 0
BITMAP
e0
90
88
88
88
90
e0
ENDCHAR
STARTCHAR E
ENCODING 69
SWIDTH 480 0
DWIDTH 6 0
BBX 5 7 1 0
BITMAP
f8
80
80
f0
80
80
f8
ENDCHAR
STARTCHAR F
ENCODING 70
SWIDTH 480 0
DWIDTH 6 0
BBX 5 7 1 0
BITMAP
f8
80
80
f0
80
80
80
ENDCHAR
STARTCHAR G
ENCODING 71
SWIDTH 480 0
DWIDTH 6 0
BBX 5 7 1 0
BITMAP
70
88
80
98
88
88
78
ENDCHAR
STARTCHAR H
ENCODING 72
SWIDTH 480 0
DWIDTH 6 0
BBX 5 7 1 0
BITMAP
88
88
88
f8
88
88
88
ENDCHAR
STARTCHAR I
ENCODING 73
SWIDTH 480 0
DWIDTH 6 0
BBX 5 7 1 0
BITMAP
f8
20
20
20
20
20
f8
ENDCHAR
STARTCHAR J
ENCODING 74
SWIDTH 480 0
DWIDTH 6 0
BBX 5 7 1 0
BITMAP
38
08
08
08
88
88
70
ENDCHAR
STARTCHAR K
ENCODING 75
SWIDTH 480 0
DWIDTH 6 0
BBX 5 7 1 0
BITMAP
88
90
a0
c0
a0
90
88
ENDCHAR
STARTCHAR L
ENCODING 76
SWIDTH 480 0
DWIDTH 6 0
BBX 5 7 1 0
BITMAP
80
80
80
80
80
80
f8
ENDCHAR
STARTCHAR M
ENCODING 77
SWIDTH 480 0
DWIDTH 6 0
BBX 5 7 1 0
BITMAP
88
d8
a8
a8
88
88
88
ENDCHAR
STARTCHAR N
ENCODING 78
SWIDTH 480 0
DWIDTH 6 0
BBX 5 7 1 0
BITMAP
88
c8
c8
a8
98
98
88
ENDCHAR
STARTCHAR O
ENCODING 79
SWIDTH 480 0
DWIDTH 6 0
BBX 5 7 1 0
BITMAP
70
88
88
88
88
88
70
ENDCHAR
STARTCHAR P
ENCODING 80
SWIDTH 480 0
DWIDTH 6 0
BBX 5 7 1 0
BITMAP
f0
88
88
f0
80
80
80
ENDCHAR
STARTCHAR Q
ENCODING 81
SWIDTH 480 0
DWIDTH 6 0
BBX 5 8 1 -1
BITMAP
70
88
88
88
88
88
70
18
ENDCHAR
STARTCHAR R
ENCODING 82
SWIDTH 480 0
DWIDTH 6 0
BBX 5 7 1 0
BITMAP
f0
88
88
f0
a0
90
88
ENDCHAR
STARTCHAR S
ENCODING 83
SWIDTH 480 0
DWIDTH 6 0
BBX 5 7 1 0
BITMAP
70
88
80
70
08
88
70
ENDCHAR
STARTCHAR T
ENCODING 84
SWIDTH 480 0
DWIDTH 6 0
BBX 5 7 1 0
BITMAP
f8
20
20
20
20
20
20
ENDCHAR
STARTCHAR U
ENCODING 85
SWIDTH 480 0
DWIDTH 6 0
BBX 5 7 1 0
BITMAP
88
88
88
88
88
88
70
ENDCHAR
STARTCHAR V
ENCODING 86
SWIDTH 480 0
DWIDTH 6 0
BBX 5 7 1 0
BITMAP
88
88
88
50
50
20
20
ENDCHAR
STARTCHAR W
ENCODING 87
SWIDTH 480 0
DWIDTH 6 0
BBX 5 7 1 0
BITMAP
88
88
88
a8
a8
d8
88
ENDCHAR
STARTCHAR X
ENCODING 88
SWIDTH 480 0
DWIDTH 6 0
BBX 5 7 1 0
BITMAP
88
88
50
20
50
88
88
ENDCHAR
STARTCHAR Y
ENCODING 89
SWIDTH 480 0
DWIDTH 6 0
BBX 5 7 1 0
BITMAP
88
88
50
20
20
20
20
ENDCHAR
STARTCHAR Z
ENCODING 90
SWIDTH 480 0
DWIDTH 6 0
BBX 5 7 1 0
BITMAP
f8
08
10
20
40
80
f8
ENDCHAR
STARTCHAR bracketleft
ENCODING 91
SWIDTH 480 0
DWIDTH 6 0
BBX 3 11 3 -2
BITMAP
e0
80
80
80
80
80
80
80
80
80
e0
ENDCHAR
STARTCHAR backslash
ENCODING 92
SWIDTH 480 0
DWIDTH 6 0
BBX 5 10 1 -1
BITMAP
80
80
40
40
20
20
10
10
08
08
ENDCHAR
STARTCHAR bracketright
ENCODING 93
SWIDTH 480 0
DWIDTH 6 0
BBX 3 11 1 -2
BITMAP
e0
20
20
20
20
20
20
20
20
20
e0
ENDCHAR
STARTCHAR asciicircum
ENCODING 94
SWIDTH 480 0
DWIDTH 6 0
BBX 5 3 1 5
BITMAP
20
50
88
ENDCHAR
STARTCHAR underscore
ENCODING 95
SWIDTH 480 0
DWIDTH 6 0
BBX 6 1 0 -1
BITMAP
fc
ENDCHAR
STARTCHAR grave
ENCODING 96
SWIDTH 480 0
DWIDTH 6 0
BBX 3 3 2 5
BITMAP
c0
40
20
ENDCHAR
STARTCHAR a
ENCODING 97
SWIDTH 480 0
DWIDTH 6 0
BBX 5 5 1 0
BITMAP
78
88
88
98
68
ENDCHAR
STARTCHAR b
ENCODING 98
SWIDTH 480 0
DWIDTH 6 0
BBX 5 8 1 0
BITMAP
80
80
80
f0
88
88
88
f0
ENDCHAR
STARTCHAR c
ENCODING 99
SWIDTH 480 0
DWIDTH 6 0
BBX 5 5 1 0
BITMAP
78
80
80
80
78
ENDCHAR
STARTCHAR d
ENCODING 100
SWIDTH 480 0
DWIDTH 6 0
BBX 5 8 1 0
BITMAP
08
08
08
78
88
88
88
78
ENDCHAR
STARTCHAR e
ENCODING 101
SWIDTH 480 0
DWIDTH 6 0
BBX 5 5 1 0
BITMAP
70
88
f8
80
70
ENDCHAR
STARTCHAR f
ENCODING 102
SWIDTH 480 0
DWIDTH 6 0
BBX 5 8 1 0
BITMAP
38
40
40
f0
40
40
40
40
ENDCHAR
STARTCHAR g
ENCODING 103
SWIDTH 480 0
DWIDTH 6 0
BBX 5 8 1 -3
BITMAP
78
88
88
88
78
08
08
70
ENDCHAR
STARTCHAR h
ENCODING 104
SWIDTH 480 0
DWIDTH 6 0
BBX 5 8 1 0
BITMAP
80
80
80
f0
88
88
88
88
ENDCHAR
STARTCHAR i
ENCODING 105
SWIDTH 480 0
DWIDTH 6 0
BBX 3 8 2 0
BITMAP
40
40
00
c0
40
40
40
e0
ENDCHAR
STARTCHAR j
ENCODING 106
SWIDTH 480 0
DWIDTH 6 0
BBX 4 11 1 -3
BITMAP
10
10
00
70
10
10
10
10
10
10
e0
ENDCHAR
STARTCHAR k
ENCODING 107
SWIDTH 480 0
DWIDTH 6 0
BBX 4 8 1 0
BITMAP
80
80
80
90
a0
c0
a0
90
ENDCHAR
STARTCHAR l
ENCODING 108
SWIDTH 480 0
DWIDTH 6 0
BBX 3 8 2 0
BITMAP
c0
40
40
40
40
40
40
e0
ENDCHAR
STARTCHAR m
ENCODING 109
SWIDTH 480 0
DWIDTH 6 0
BBX 5 5 1 0
BITMAP
d0
a8
a8
a8
88
ENDCHAR
STARTCHAR n
ENCODING 110
SWIDTH 480 0
DWIDTH 6 0
BBX 5 5 1 0
BITMAP
b0
c8
88
88
88
ENDCHAR
STARTCHAR o
ENCODING 111
SWIDTH 480 0
DWIDTH 6 0
BBX 5 5 1 0
BITMAP
70
88
88
88
70
ENDCHAR
STARTCHAR p
ENCODING 112
SWIDTH 480 0
DWIDTH 6 0
BBX 5 8 1 -3
BITMAP
f0
88
88
88
f0
80
80
80
ENDCHAR
STARTCHAR q
ENCODING 113
SWIDTH 480 0
DWIDTH 6 0
BBX 5 8 1 -3
BITMAP
78
88
88
88
78
08
08
08
ENDCHAR
STARTCHAR r
ENCODING 114
SWIDTH 480 0
DWIDTH 6 0
BBX 4 5 1 0
BITMAP
b0
c0
80
80
80
ENDCHAR
STARTCHAR s
ENCODING 115
SWIDTH 480 0
DWIDTH 6 0
BBX 5 5 1 0
BITMAP
78
80
70
08
f0
ENDCHAR
STARTCHAR t
ENCODING 116
SWIDTH 480 0
DWIDTH 6 0
BBX 5 8 1 0
BITMAP
20
20
20
f8
20
20
20
18
ENDCHAR
STARTCHAR u
ENCODING 117
SWIDTH 480 0
DWIDTH 6 0
BBX 5 5 1 0
BITMAP
88
88
88
98
68
ENDCHAR
STARTCHAR v
ENCODING 118
SWIDTH 480 0
DWIDTH 6 0
BBX 5 5 1 0
BITMAP
d8
50
50
20
20
ENDCHAR
STARTCHAR w
ENCODING 119
SWIDTH 480 0
DWIDTH 6 0
BBX 5 5 1 0
BITMAP
88
a8
a8
a8
50
ENDCHAR
STARTCHAR x
ENCODING 120
SWIDTH 480 0
DWIDTH 6 0
BBX 5 5 1 0
BITMAP
88
50
20
50
88
ENDCHAR
STARTCHAR y
ENCODING 121
SWIDTH 480 0
DWIDTH 6 0
BBX 5 8 1 -3
BITMAP
88
88
88
88
78
08
08
70
ENDCHAR
STARTCHAR z
ENCODING 122
SWIDTH 480 0
DWIDTH 6 0
BBX 5 5 1 0
BITMAP
f8
10
20
40
f8
ENDCHAR
STARTCHAR braceleft
ENCODING 123
SWIDTH 480 0
DWIDTH 6 0
BBX 3 11 3 -2
BITMAP
20
40
40
40
40
80
40
40
40
40
20
ENDCHAR
STARTCHAR bar
ENCODING 124
SWIDTH 480 0
DWIDTH 6 0
BBX 1 11 3 -2
BITMAP
80
80
80
80
80
80
80
80
80
80
80
ENDCHAR
STARTCHAR braceright
ENCODING 125
SWIDTH 480 0
DWIDTH 6 0
BBX 3 11 1 -2
BITMAP
80
40
40
40
40
20
40
40
40
40
80
ENDCHAR
STARTCHAR asciitilde
ENCODING 126
SWIDTH 480 0
DWIDTH 6 0
BBX 5 3 1 5
BITMAP
40
a8
10
ENDCHAR
STARTCHAR C177
ENCODING 127
SWIDTH 480 0
DWIDTH 6 0
BBX 5 6 1 0
BITMAP
20
20
50
50
88
f8
ENDCHAR
ENDFONT
